<?xml version="1.0" encoding="utf-8"?>
<!-- Generator: Adobe Illustrator 24.0.1, SVG Export Plug-In . SVG Version: 6.00 Build 0)  -->
<svg version="1.1" id="Layer_1" xmlns="http://www.w3.org/2000/svg" xmlns:xlink="http://www.w3.org/1999/xlink" x="0px" y="0px"
	 viewBox="0 0 500 500" style="enable-background:new 0 0 500 500;" xml:space="preserve">
<style type="text/css">
	.st0{fill-rule:evenodd;clip-rule:evenodd;fill:#FFFFFF;}
</style>
<g>
	<path class="st0" d="M250,16.62C121.11,16.62,16.62,121.11,16.62,250c0,128.89,104.48,233.38,233.38,233.38
		c128.89,0,233.38-104.49,233.38-233.38C483.38,121.11,378.89,16.62,250,16.62z M116.18,158.07c1.54-0.16,3.09-0.08,4.64-0.08
		c43.05,0,86.1,0,129.14,0c43.36,0,86.71-0.01,130.07,0.02c3.49,0,7.68-0.74,9.3,3.41c1.62,4.15-1.16,7.36-3.76,10.32
		c-1.76,2.01-4.01,3.37-6.33,4.64c-37.69,20.69-75.36,41.4-113.06,62.08c-10.74,5.89-21.58,5.92-32.32,0.03
		c-37.7-20.67-75.37-41.4-113.07-62.06c-4.18-2.29-7.76-5.15-9.76-9.57C108.84,161.98,110.86,158.62,116.18,158.07z M390.3,327.33
		c-0.02,8.1-8.51,15.6-17.17,15.6c-41.03,0.02-82.06,0.01-123.09,0.01c-40.72,0-81.44,0-122.16,0c-10.9,0-18.22-7.37-18.22-18.32
		c0-36.85,0-73.7,0-110.55c0-9.39,0.65-9.81,8.82-5.45c38.18,20.4,76.41,40.73,114.52,61.27c11.47,6.18,22.5,6.2,33.96,0.03
		c37.98-20.45,76.07-40.71,114.12-61.04c1.23-0.66,2.43-1.37,3.7-1.93c4.02-1.79,5.55-0.95,5.55,3.33
		C390.36,249.3,390.4,288.32,390.3,327.33z"/>
</g>
</svg>
