<?xml version="1.0" encoding="utf-8"?>
<!-- Generator: Adobe Illustrator 24.0.1, SVG Export Plug-In . SVG Version: 6.00 Build 0)  -->
<svg version="1.1" id="Layer_1" xmlns="http://www.w3.org/2000/svg" xmlns:xlink="http://www.w3.org/1999/xlink" x="0px" y="0px"
	 viewBox="0 0 500 500" style="enable-background:new 0 0 500 500;" xml:space="preserve">
<style type="text/css">
	.st0{fill:#FFFFFF;}
</style>
<g>
	<path class="st0" d="M308.93,254.23c-0.81,4.96-2,9.84-3.58,14.61c-1.69,5.09-6.43,8.32-11.51,8.32c-1.27,0-2.56-0.2-3.82-0.62
		c-6.36-2.11-9.8-8.98-7.69-15.34c2.39-7.23,3.61-14.8,3.61-22.53c0-39.66-32.32-71.94-72.05-71.94c-28.55,0-54.1,16.88-65.61,42.2
		c11.18,2.83,21.44,8.54,29.79,16.89c4.74,4.74,4.74,12.42,0,17.16c-4.74,4.74-12.42,4.74-17.16,0
		c-7.63-7.63-17.79-11.83-28.63-11.83c-22.33,0-40.49,18.12-40.49,40.39c0,22.26,18.16,40.37,40.49,40.37h165.81
		c16.52,0,29.96-13.4,29.96-29.88C328.02,269.39,320.09,258.57,308.93,254.23z"/>
	<path class="st0" d="M250,19L250,19C123.8,19,21.5,121.3,21.5,247.5v5C21.5,378.7,123.8,481,250,481h0
		c126.2,0,228.5-102.3,228.5-228.5v-5C478.5,121.3,376.2,19,250,19z M298.06,336.18H132.25c-35.7,0-64.75-29-64.75-64.64
		c0-32.42,24.04-59.27,55.24-63.89c13.17-38.65,49.79-65.2,91.13-65.2c49.9,0,91.06,38.11,95.85,86.73
		c24.31,5.34,42.57,26.99,42.57,52.85C352.29,311.89,327.96,336.18,298.06,336.18z M366.47,337.84c-2.34,0-4.71-0.68-6.79-2.09
		c-5.55-3.76-7-11.31-3.24-16.86c7.39-10.9,11.29-23.65,11.29-36.85c0-13.19-3.91-25.94-11.3-36.87c-3.76-5.55-2.3-13.1,3.25-16.85
		c5.55-3.76,13.09-2.3,16.84,3.25c10.12,14.96,15.47,32.41,15.47,50.47c0,18.08-5.35,35.53-15.48,50.48
		C374.18,335.97,370.36,337.84,366.47,337.84z M411.27,352.16c-2.35,3.49-6.18,5.38-10.09,5.38c-2.32,0-4.67-0.67-6.74-2.05
		c-5.57-3.74-7.05-11.28-3.33-16.84c11.2-16.72,17.13-36.3,17.13-56.61c0-20.32-5.93-39.9-17.12-56.61
		c-3.73-5.57-2.25-13.1,3.32-16.84c5.56-3.73,13.1-2.24,16.83,3.32c13.89,20.73,21.23,44.98,21.23,70.13
		C432.5,307.18,425.16,331.44,411.27,352.16z"/>
</g>
</svg>
