<?xml version="1.0" encoding="utf-8"?>
<!-- Generator: Adobe Illustrator 24.0.1, SVG Export Plug-In . SVG Version: 6.00 Build 0)  -->
<svg version="1.1" id="Layer_1" xmlns="http://www.w3.org/2000/svg" xmlns:xlink="http://www.w3.org/1999/xlink" x="0px" y="0px"
	 viewBox="0 0 496 496" style="enable-background:new 0 0 496 496;" xml:space="preserve">
<style type="text/css">
	.st0{fill:#FFFFFF;}
</style>
<path class="st0" d="M248,136c-61.86,0-112,50.14-112,112s50.14,112,112,112s112-50.14,112-112S309.86,136,248,136z M248,264
	c-8.84,0-16-7.16-16-16s7.16-16,16-16s16,7.16,16,16S256.84,264,248,264z"/>
<g>
	<path class="st0" d="M248,0C111.04,0,0,111.04,0,248s111.04,248,248,248s248-111.04,248-248C495.84,111.1,384.9,0.16,248,0z
		 M248,480C119.87,480,16,376.13,16,248S119.87,16,248,16s232,103.87,232,232C479.86,376.07,376.07,479.86,248,480z"/>
	<path class="st0" d="M248,24c-4.42,0-8,3.58-8,8s3.58,8,8,8c55.2-0.15,108.16,21.79,147.08,60.92c3.13,3.12,8.2,3.12,11.32,0
		c3.13-3.13,3.13-8.2,0-11.32C364.48,47.46,307.44,23.84,248,24z"/>
	<path class="st0" d="M248,456c-54.41,0.13-106.69-21.2-145.49-59.34c-3.16-3.09-8.22-3.04-11.32,0.12
		c-3.09,3.16-3.04,8.22,0.12,11.32C133.1,449.18,189.4,472.14,248,472c4.42,0,8-3.58,8-8S252.42,456,248,456z"/>
	<path class="st0" d="M248,48c-4.42,0-8,3.58-8,8s3.58,8,8,8c48.82-0.13,95.68,19.27,130.11,53.89c2.01,2.08,4.98,2.91,7.78,2.18
		c2.8-0.73,4.98-2.92,5.71-5.71s-0.1-5.77-2.18-7.78C352,68.95,301.07,47.86,248,48z"/>
	<path class="st0" d="M248,432c-48.82,0.13-95.68-19.27-130.11-53.89c-3.14-3.03-8.13-2.99-11.21,0.1s-3.13,8.07-0.1,11.21
		C144,427.05,194.93,448.14,248,448c4.42,0,8-3.58,8-8S252.42,432,248,432z"/>
</g>
</svg>
